<?xml version="1.0" encoding="UTF-8" standalone="no"?>
<svg
   xmlns:dc="http://purl.org/dc/elements/1.1/"
   xmlns:cc="http://creativecommons.org/ns#"
   xmlns:rdf="http://www.w3.org/1999/02/22-rdf-syntax-ns#"
   xmlns:svg="http://www.w3.org/2000/svg"
   xmlns="http://www.w3.org/2000/svg"
   version="1.1"
   id="svg2"
   viewBox="0 0 294.18281 37.599998"
   height="10.611555mm"
   width="83.024925mm">
  <defs
     id="defs4" />
  <metadata
     id="metadata7">
    <rdf:RDF>
      <cc:Work
         rdf:about="">
        <dc:format>image/svg+xml</dc:format>
        <dc:type
           rdf:resource="http://purl.org/dc/dcmitype/StillImage" />
        <dc:title></dc:title>
      </cc:Work>
    </rdf:RDF>
  </metadata>
  <g
     transform="translate(-109.66452,-179.97833)"
     id="layer1">
    <g
       id="text3336"
       style="font-style:normal;font-variant:normal;font-weight:100;font-stretch:normal;font-size:50px;line-height:125%;font-family:Notram;-inkscape-font-specification:'Notram Thin';letter-spacing:0px;word-spacing:0px;fill:#aa4400;fill-opacity:1;stroke:none;stroke-width:1px;stroke-linecap:butt;stroke-linejoin:miter;stroke-opacity:1">
      <path
         id="path3341"
         d="m 144.61452,180.87833 2.45,0 0,6.5 -2.45,0 q -2.35,-2.3 -6,-3.3 -2.9,-0.8 -5.6,-0.8 -5.3,0 -8.4,3.15 -3.1,3.15 -3.1,8.7 0,2.15 0.15,3.9 0.2,1.75 0.75,3.4 1.9,5.85 6.5,8.8 4.4,2.8 10.8,2.8 1.3,0 2.9,-0.4 3.2,-0.65 5.7,-2 l 1.15,2.1 q -3.8,2.05 -9.4,3.15 -2.2,0.4 -2.5,0.45 -1.5,0.25 -2.65,0.25 -25.25,0 -25.25,-18.65 0,-8.45 5.85,-13.65 5.9,-5.2 16.1,-5.2 2.35,0 4.9,0.35 2.55,0.3 4.45,0.75 l 0.2,0.05 0.95,0.25 q 0.75,0.15 1.2,0.15 0.65,0 1.15,-0.55 l 0.15,-0.2 z" />
      <path
         id="path3343"
         d="m 148.77077,216.87833 0,-2.3 1,-0.45 q 0.6,-0.45 0.9,-0.85 0.3,-0.4 0.85,-1.7 l 0.65,-1.6 10.55,-29.1 8.2,0 10.6,29.25 0.6,1.4 q 0.8,1.95 1.7,2.6 l 0.65,0.45 0,2.3 -16.65,0 0,-2.3 0.4,-0.05 q 1.65,-0.4 1.65,-2 0,-0.75 -0.4,-2.05 l -1.55,-4.55 -10.75,0 -1.65,4.65 q -0.3,0.9 -0.3,1.6 0,1.5 1.75,2.25 l 0.3,0.1 0,2.35 -8.5,0 z m 18,-14.35 -4.1,-12 -4.25,12 8.35,0 z" />
      <path
         id="path3345"
         d="m 184.29812,216.87833 0,-2.4 0.3,-0.1 0.3,-0.1 q 1,-0.4 1.35,-1 0.35,-0.6 0.35,-1.9 l 0,-25.3 q 0,-1.45 -0.65,-2.25 -0.55,-0.55 -1.3,-0.7 l -0.3,-0.05 0,-2.2 17.95,0 2.1,0.05 q 5.9,0 9.4,2.25 3.25,2.1 4.15,5.85 0.45,1.9 0.45,3.55 0,5.15 -4.05,8.1 -4,2.95 -11.65,2.95 l -4.5,0 0,7.75 q 0,1.2 0.35,1.85 0.35,0.65 1.25,1 l 0.35,0.15 0.25,0.05 0,2.45 -16.1,0 z m 15.05,-16.45 q 5.75,0 6.75,-6.35 0.15,-1.05 0.15,-2.05 0,-3.65 -1.95,-5.75 -1.9,-2.15 -4.95,-2.15 l -1.1,0 0,16.3 1.1,0 z" />
      <path
         id="path3347"
         d="m 218.4778,207.22833 0,-7.1 15.8,0 0,7.1 -15.8,0 z" />
      <path
         id="path3349"
         d="m 271.37233,180.87833 2.45,0 0,6.5 -2.45,0 q -2.35,-2.3 -6,-3.3 -2.9,-0.8 -5.6,-0.8 -5.3,0 -8.4,3.15 -3.1,3.15 -3.1,8.7 0,2.15 0.15,3.9 0.2,1.75 0.75,3.4 1.9,5.85 6.5,8.8 4.4,2.8 10.8,2.8 1.3,0 2.9,-0.4 3.2,-0.65 5.7,-2 l 1.15,2.1 q -3.8,2.05 -9.4,3.15 -2.2,0.4 -2.5,0.45 -1.5,0.25 -2.65,0.25 -25.25,0 -25.25,-18.65 0,-8.45 5.85,-13.65 5.9,-5.2 16.1,-5.2 2.35,0 4.9,0.35 2.55,0.3 4.45,0.75 l 0.2,0.05 0.95,0.25 q 0.75,0.15 1.2,0.15 0.65,0 1.15,-0.55 l 0.15,-0.2 z" />
      <path
         id="path3351"
         d="m 277.82858,199.07833 q 0,-1.85 0.5,-4 1.75,-7.1 7.1,-11.1 5.35,-4 13.55,-4 10.1,0 16.15,5.15 6.05,5.1 6.05,13.2 0,2.55 -0.55,4.9 -1.2,5.1 -5.15,8.9 -3.05,2.95 -6.9,4.2 -3.8,1.25 -9.7,1.25 -10,0 -15.55,-5 -5.5,-5.05 -5.5,-13.5 z m 11.55,1.15 q 1.6,3.7 4,6.8 2.85,3.75 5.5,5.5 2.7,1.75 5.2,1.75 1.2,0 2.25,-0.35 2.5,-0.85 3.95,-2.85 1.45,-2.05 1.45,-5.2 0,-3 -1.4,-6.55 -1.55,-3.95 -4.65,-8.3 -2.1,-2.95 -3.8,-4.45 -1.65,-1.5 -3.4,-2.25 -1.75,-0.8 -3.5,-0.8 -2.75,0 -5,1.8 -2.2,1.75 -2.75,4.5 -0.15,0.75 -0.15,0.85 -0.05,0.35 -0.05,1 0,1.7 0.5,3.6 0.55,1.9 1.85,4.95 z" />
      <path
         id="path3353"
         d="m 324.31296,199.07833 q 0,-1.85 0.5,-4 1.75,-7.1 7.1,-11.1 5.35,-4 13.55,-4 10.1,0 16.15,5.15 6.05,5.1 6.05,13.2 0,2.55 -0.55,4.9 -1.2,5.1 -5.15,8.9 -3.05,2.95 -6.9,4.2 -3.8,1.25 -9.7,1.25 -10,0 -15.55,-5 -5.5,-5.05 -5.5,-13.5 z m 11.55,1.15 q 1.6,3.7 4,6.8 2.85,3.75 5.5,5.5 2.7,1.75 5.2,1.75 1.2,0 2.25,-0.35 2.5,-0.85 3.95,-2.85 1.45,-2.05 1.45,-5.2 0,-3 -1.4,-6.55 -1.55,-3.95 -4.65,-8.3 -2.1,-2.95 -3.8,-4.45 -1.65,-1.5 -3.4,-2.25 -1.75,-0.8 -3.5,-0.8 -2.75,0 -5,1.8 -2.2,1.75 -2.75,4.5 -0.15,0.75 -0.15,0.85 -0.05,0.35 -0.05,1 0,1.7 0.5,3.6 0.55,1.9 1.85,4.95 z" />
      <path
         id="path3355"
         d="m 369.74733,216.87833 0,-2.4 0.3,-0.1 0.3,-0.1 q 1,-0.4 1.35,-1 0.35,-0.6 0.35,-1.9 l 0,-25.3 q 0,-1.45 -0.65,-2.25 -0.55,-0.55 -1.3,-0.7 l -0.3,-0.05 0,-2.2 17.95,0 2.1,0.05 q 5.9,0 9.4,2.25 3.25,2.1 4.15,5.85 0.45,1.9 0.45,3.55 0,5.15 -4.05,8.1 -4,2.95 -11.65,2.95 l -4.5,0 0,7.75 q 0,1.2 0.35,1.85 0.35,0.65 1.25,1 l 0.35,0.15 0.25,0.05 0,2.45 -16.1,0 z m 15.05,-16.45 q 5.75,0 6.75,-6.35 0.15,-1.05 0.15,-2.05 0,-3.65 -1.95,-5.75 -1.9,-2.15 -4.95,-2.15 l -1.1,0 0,16.3 1.1,0 z" />
    </g>
  </g>
</svg>
