<?xml version="1.0" encoding="UTF-8" standalone="no"?>
<!-- Created with Inkscape (http://www.inkscape.org/) -->

<svg
   xmlns:dc="http://purl.org/dc/elements/1.1/"
   xmlns:cc="http://creativecommons.org/ns#"
   xmlns:rdf="http://www.w3.org/1999/02/22-rdf-syntax-ns#"
   xmlns:svg="http://www.w3.org/2000/svg"
   xmlns="http://www.w3.org/2000/svg"
   xmlns:sodipodi="http://sodipodi.sourceforge.net/DTD/sodipodi-0.dtd"
   xmlns:inkscape="http://www.inkscape.org/namespaces/inkscape"
   width="35.373028mm"
   height="35.370205mm"
   viewBox="0 0 125.3375 125.3275"
   id="svg4643"
   version="1.1"
   inkscape:version="0.91 r13725">
  <defs
     id="defs4645" />
  <sodipodi:namedview
     id="base"
     pagecolor="#ffffff"
     bordercolor="#666666"
     borderopacity="1.0"
     inkscape:pageopacity="0.0"
     inkscape:pageshadow="2"
     inkscape:zoom="0.35"
     inkscape:cx="-98.675377"
     inkscape:cy="-15.84076"
     inkscape:document-units="px"
     inkscape:current-layer="layer1"
     showgrid="false"
     fit-margin-top="0"
     fit-margin-left="0"
     fit-margin-right="0"
     fit-margin-bottom="0"
     inkscape:window-width="1920"
     inkscape:window-height="1028"
     inkscape:window-x="-8"
     inkscape:window-y="-8"
     inkscape:window-maximized="1" />
  <metadata
     id="metadata4648">
    <rdf:RDF>
      <cc:Work
         rdf:about="">
        <dc:format>image/svg+xml</dc:format>
        <dc:type
           rdf:resource="http://purl.org/dc/dcmitype/StillImage" />
        <dc:title></dc:title>
      </cc:Work>
    </rdf:RDF>
  </metadata>
  <g
     inkscape:label="Layer 1"
     inkscape:groupmode="layer"
     id="layer1"
     transform="translate(-46.53252,-391.19394)">
    <g
       transform="translate(0,4.7244096e-6)"
       id="g4616">
      <path
         inkscape:connector-curvature="0"
         d="m 147.30377,425.69769 24.285,22.31625 c -2.94875,-31.86625 -29.7475,-56.82 -62.3875,-56.82 -34.61125,0 -62.66875,28.05625 -62.66875,62.6675 0,33.56375 26.39875,60.96625 59.57,62.5825 l -33.49875,-32.70625 74.7,-58.04"
         style="fill:#48bbb8;fill-opacity:1;fill-rule:nonzero;stroke:none"
         id="path20" />
      <path
         inkscape:connector-curvature="0"
         d="m 171.87002,453.86144 c 0,-1.9725 -0.10375,-3.92 -0.28125,-5.8475 l -24.285,-22.31625 -74.7,58.04 33.49875,32.70625 c 1.02625,0.0487 2.06125,0.0775 3.09875,0.0775 34.60875,0 62.66875,-28.0575 62.66875,-62.66"
         style="fill:#36a4a1;fill-opacity:1;fill-rule:nonzero;stroke:none"
         id="path22" />
      <path
         inkscape:connector-curvature="0"
         d="m 124.94502,496.53019 c -0.855,2.5275 -3.59125,3.8825 -6.12,3.03 l -44.98625,-15.1925 c -2.5275,-0.85375 -3.8825,-3.5925 -3.03,-6.11875 l 22.6525,-67.065 c 0.85375,-2.52625 3.59375,-3.8825 6.1175,-3.03 l 44.99125,15.19375 c 2.5225,0.85125 3.88125,3.59125 3.0275,6.11875 l -22.6525,67.06375"
         style="fill:#e9eae5;fill-opacity:1;fill-rule:nonzero;stroke:none"
         id="path24" />
      <path
         inkscape:connector-curvature="0"
         d="m 111.64502,446.72144 c 0,0 -1.4975,-6.73875 -5.59875,-6.3125 -12.09875,1.24625 -0.72375,25.02625 -0.72375,25.02625 0,0 22.55875,-13.0775 14.85,-20.255 -4.3175,-4.0225 -8.5275,1.54125 -8.5275,1.54125"
         style="fill:#de092b;fill-opacity:1;fill-rule:nonzero;stroke:none"
         id="path26" />
      <path
         inkscape:connector-curvature="0"
         d="m 96.95002,423.90019 c 0,0 -0.4375,-1.9675 -1.63625,-1.845 -3.53,0.36625 -0.21,7.30875 -0.21,7.30875 0,0 6.58875,-3.81875 4.33625,-5.915 -1.2625,-1.17375 -2.49,0.45125 -2.49,0.45125"
         style="fill:#de092b;fill-opacity:1;fill-rule:nonzero;stroke:none"
         id="path28" />
      <path
         inkscape:connector-curvature="0"
         d="m 100.74002,420.14019 0.125,-5.02125 0.28125,0.0975 0.3175,-0.94625 -2.45625,-0.82875 -0.31875,0.9425 0.25625,0.0888 -2.9225,4.075 -0.43375,-0.14625 -0.31875,0.9425 2.06625,0.6975 0.31625,-0.94375 -0.35875,-0.11875 0.5775,-0.85 1.57125,0.53 -0.0337,1.03375 -0.18375,-0.0637 -0.3175,0.9425 2.06125,0.6975 0.32,-0.94375 -0.54875,-0.185 z m -2.375,-2.88 0.7175,-1.05375 c 0.19625,-0.2875 0.41875,-0.675 0.60875,-0.9725 l 0.0175,0.006 c -0.0275,0.35125 -0.0662,0.79375 -0.0762,1.15 l -0.0538,1.27875 -1.21375,-0.40875"
         style="fill:#de092b;fill-opacity:1;fill-rule:nonzero;stroke:none"
         id="path30" />
      <path
         inkscape:connector-curvature="0"
         d="m 121.70752,483.66894 c 0,0 0.435,1.96625 1.63375,1.84125 3.5325,-0.36375 0.21,-7.30625 0.21,-7.30625 0,0 -6.58375,3.81875 -4.33125,5.9125 1.25625,1.17375 2.4875,-0.4475 2.4875,-0.4475"
         style="fill:#de092b;fill-opacity:1;fill-rule:nonzero;stroke:none"
         id="path32" />
      <path
         inkscape:connector-curvature="0"
         d="m 117.91877,487.42644 -0.12625,5.0225 -0.28125,-0.0962 -0.32,0.945 2.46125,0.82875 0.31875,-0.9425 -0.26125,-0.0875 2.92625,-4.075 0.4325,0.145 0.31875,-0.9425 -2.06375,-0.6975 -0.31875,0.9425 0.35625,0.12125 -0.57625,0.84875 -1.5675,-0.53 0.0312,-1.0325 0.18375,0.06 0.31875,-0.9425 -2.06125,-0.69625 -0.3175,0.945 0.54625,0.18375 z m 2.37375,2.87875 -0.72,1.0575 c -0.19625,0.28625 -0.415,0.67375 -0.60875,0.975 l -0.0137,-0.006 c 0.0263,-0.35375 0.0662,-0.79625 0.0775,-1.15375 l 0.0537,-1.28125 1.21125,0.40875"
         style="fill:#de092b;fill-opacity:1;fill-rule:nonzero;stroke:none"
         id="path34" />
    </g>
  </g>
</svg>
