<?xml version="1.0" encoding="UTF-8" standalone="no"?>
<svg
   xmlns:dc="http://purl.org/dc/elements/1.1/"
   xmlns:cc="http://creativecommons.org/ns#"
   xmlns:rdf="http://www.w3.org/1999/02/22-rdf-syntax-ns#"
   xmlns:svg="http://www.w3.org/2000/svg"
   xmlns="http://www.w3.org/2000/svg"
   version="1.1"
   id="svg4540"
   viewBox="0 0 125.3375 125.33626"
   height="35.372677mm"
   width="35.373028mm">
  <defs
     id="defs4542" />
  <metadata
     id="metadata4545">
    <rdf:RDF>
      <cc:Work
         rdf:about="">
        <dc:format>image/svg+xml</dc:format>
        <dc:type
           rdf:resource="http://purl.org/dc/dcmitype/StillImage" />
        <dc:title></dc:title>
      </cc:Work>
    </rdf:RDF>
  </metadata>
  <g
     transform="translate(-211.19752,-566.01894)"
     id="layer1">
    <g
       id="g4467"
       transform="translate(0,4.7244096e-6)">
      <path
         id="path36"
         style="fill:#ffca08;fill-opacity:1;fill-rule:nonzero;stroke:none"
         d="m 263.25252,654.78769 -11.62875,-11.89375 26.505,-36.09875 25.815,24.01875 11.96375,-7.04625 19.26625,17.925 c 0.88625,-4.19625 1.36125,-8.54375 1.36125,-13.005 0,-34.61125 -28.05875,-62.66875 -62.66875,-62.66875 -34.61,0 -62.66875,28.0575 -62.66875,62.66875 0,34.61125 28.05875,62.6675 62.66875,62.6675 6.1275,0 12.0425,-0.89375 17.64125,-2.535 l -31.4375,-32.16125 3.1825,-1.87125" />
      <path
         id="path38"
         style="fill:#fda607;fill-opacity:1;fill-rule:nonzero;stroke:none"
         d="m 335.17377,641.69269 -19.26625,-17.925 -11.96375,7.04625 -25.815,-24.01875 -26.505,36.09875 11.62875,11.89375 -3.1825,1.87125 31.4375,32.16125 c 21.9425,-6.42875 38.89625,-24.52875 43.66625,-47.1275" />
      <path
         id="path40"
         style="fill:#b10815;fill-opacity:1;fill-rule:nonzero;stroke:none"
         d="m 251.66627,642.89394 -19.84125,-18.1825 29.2125,-11.2725 19.8425,18.68 -29.21375,10.775" />
      <path
         id="path42"
         style="fill:#d1d3d4;fill-opacity:1;fill-rule:nonzero;stroke:none"
         d="m 244.27627,631.12144 c -2.59875,-0.05 -4.68125,-1.235 -4.65375,-2.6475 0.0287,-1.41375 2.155,-2.5175 4.75125,-2.47 2.5975,0.05 4.6825,1.235 4.655,2.64875 -0.025,1.41375 -2.155,2.52 -4.7525,2.46875" />
      <path
         id="path44"
         style="fill:#d1d3d4;fill-opacity:1;fill-rule:nonzero;stroke:none"
         d="m 256.85877,632.64644 c -2.59625,-0.05 -4.68,-1.23625 -4.655,-2.6475 0.03,-1.415 2.155,-2.52125 4.7525,-2.47125 2.59625,0.0488 4.6825,1.235 4.65375,2.65125 -0.0263,1.41 -2.15375,2.51625 -4.75125,2.4675" />
      <path
         id="path46"
         style="fill:#d1d3d4;fill-opacity:1;fill-rule:nonzero;stroke:none"
         d="m 259.13752,625.89769 c -2.5975,-0.0487 -4.67875,-1.23375 -4.6525,-2.64875 0.0263,-1.4125 2.15375,-2.52125 4.75125,-2.47 2.5975,0.05 4.67875,1.23625 4.655,2.64875 -0.0288,1.415 -2.155,2.52 -4.75375,2.47" />
      <path
         id="path48"
         style="fill:#d1d3d4;fill-opacity:1;fill-rule:nonzero;stroke:none"
         d="m 253.82627,639.05769 c -2.5975,-0.05 -4.6825,-1.23625 -4.65375,-2.65 0.0263,-1.41125 2.15375,-2.5175 4.7525,-2.46875 2.595,0.0513 4.68,1.23625 4.65375,2.64875 -0.0275,1.4125 -2.15375,2.52 -4.7525,2.47" />
      <path
         id="path50"
         style="fill:#db2c4b;fill-opacity:1;fill-rule:nonzero;stroke:none"
         d="m 231.82502,624.71144 29.2125,-11.2725 -1.85125,-27.2375 -27.36125,11.33875 0,27.17125" />
      <path
         id="path52"
         style="fill:#730115;fill-opacity:1;fill-rule:nonzero;stroke:none"
         d="m 259.18627,586.20144 18.9625,20.335 2.73125,25.5825 -19.8425,-18.68 -1.85125,-27.2375" />
      <path
         id="path54"
         style="fill:#b10815;fill-opacity:1;fill-rule:nonzero;stroke:none"
         d="m 260.07002,623.76394 27.915,-10.83875 27.9225,10.83875 -27.9225,12.735 -27.915,-12.735" />
      <path
         id="path56"
         style="fill:#db2c4b;fill-opacity:1;fill-rule:nonzero;stroke:none"
         d="m 287.98502,671.17519 -27.915,-14.57625 0,-32.835 27.915,12.735 0,34.67625" />
      <path
         id="path58"
         style="fill:#ffffff;fill-opacity:1;fill-rule:nonzero;stroke:none"
         d="m 269.61002,634.78144 c 1.1425,2.69625 0.80125,5.41875 -0.75875,6.08125 -1.56,0.66 -3.75125,-0.9925 -4.8925,-3.6875 -1.1425,-2.69625 -0.805,-5.4175 0.7575,-6.0775 1.56,-0.66125 3.7525,0.985 4.89375,3.68375" />
      <path
         id="path60"
         style="fill:#ffffff;fill-opacity:1;fill-rule:nonzero;stroke:none"
         d="m 283.31877,641.69519 c 1.13875,2.69875 0.79875,5.42 -0.76125,6.0825 -1.56125,0.6575 -3.75,-0.99125 -4.895,-3.68625 -1.1425,-2.695 -0.80125,-5.41625 0.7575,-6.07875 1.56375,-0.66125 3.755,0.98875 4.89875,3.6825" />
      <path
         id="path62"
         style="fill:#ffffff;fill-opacity:1;fill-rule:nonzero;stroke:none"
         d="m 240.73627,616.76394 c -1.45125,2.155 -3.76625,3.13375 -5.1725,2.185 -1.40375,-0.94875 -1.37,-3.4625 0.0812,-5.61625 1.45375,-2.1525 3.7725,-3.13 5.17875,-2.18375 1.405,0.9475 1.3675,3.46 -0.0875,5.615" />
      <path
         id="path64"
         style="fill:#ffffff;fill-opacity:1;fill-rule:nonzero;stroke:none"
         d="m 248.05877,607.17144 c -1.4525,2.15375 -3.76875,3.13125 -5.175,2.18625 -1.4075,-0.94875 -1.36875,-3.46375 0.0863,-5.6175 1.4475,-2.155 3.76625,-3.1325 5.1725,-2.185 1.405,0.94875 1.3675,3.4625 -0.0838,5.61625" />
      <path
         id="path66"
         style="fill:#ffffff;fill-opacity:1;fill-rule:nonzero;stroke:none"
         d="m 255.24127,597.16394 c -1.45375,2.155 -3.76875,3.13375 -5.17625,2.1875 -1.40625,-0.9475 -1.3675,-3.46375 0.0825,-5.62 1.45375,-2.1525 3.77125,-3.12875 5.1775,-2.18125 1.405,0.94625 1.3675,3.46375 -0.0838,5.61375" />
      <path
         id="path68"
         style="fill:#939598;fill-opacity:1;fill-rule:nonzero;stroke:none"
         d="m 268.81877,609.42394 c -1.07375,-2.3675 -1.085,-4.67125 -0.0275,-5.155 1.05875,-0.48125 2.7875,1.05 3.86125,3.4125 1.07125,2.36625 1.08625,4.67375 0.025,5.15375 -1.055,0.48 -2.78375,-1.04625 -3.85875,-3.41125" />
      <path
         id="path70"
         style="fill:#ffffff;fill-opacity:1;fill-rule:nonzero;stroke:none"
         d="m 269.61002,650.75394 c 1.1425,2.6975 0.80125,5.42125 -0.75875,6.0825 -1.56,0.6625 -3.75125,-0.99 -4.8925,-3.68625 -1.1425,-2.695 -0.805,-5.4175 0.7575,-6.08 1.56,-0.66 3.7525,0.99 4.89375,3.68375" />
      <path
         id="path72"
         style="fill:#ffffff;fill-opacity:1;fill-rule:nonzero;stroke:none"
         d="m 283.70877,657.67394 c 1.14125,2.69375 0.80125,5.41625 -0.75625,6.07875 -1.5625,0.65875 -3.7575,-0.99 -4.89875,-3.68625 -1.14,-2.69625 -0.80125,-5.4175 0.75875,-6.07875 1.56375,-0.6625 3.755,0.98625 4.89625,3.68625" />
      <path
         id="path74"
         style="fill:#d1d3d4;fill-opacity:1;fill-rule:nonzero;stroke:none"
         d="m 289.17127,620.18519 c -2.9475,-0.2375 -5.26375,-1.3225 -5.17625,-2.41625 0.09,-1.0975 2.5525,-1.795 5.495,-1.55375 2.95,0.23875 5.26875,1.32125 5.1775,2.4175 -0.0863,1.09625 -2.55125,1.7925 -5.49625,1.5525" />
      <path
         id="path76"
         style="fill:#d1d3d4;fill-opacity:1;fill-rule:nonzero;stroke:none"
         d="m 280.71502,623.29019 c -2.94625,-0.2375 -5.2625,-1.32 -5.17625,-2.4175 0.0925,-1.095 2.55125,-1.79125 5.49875,-1.55375 2.9475,0.24 5.2625,1.32375 5.17375,2.42125 -0.0863,1.09625 -2.55,1.79 -5.49625,1.55" />
      <path
         id="path78"
         style="fill:#d1d3d4;fill-opacity:1;fill-rule:nonzero;stroke:none"
         d="m 272.64877,626.29144 c -2.94375,-0.2375 -5.25875,-1.31875 -5.17625,-2.4175 0.0913,-1.095 2.55375,-1.79125 5.4975,-1.5525 2.94875,0.24 5.265,1.32125 5.175,2.41875 -0.0838,1.095 -2.5475,1.7925 -5.49625,1.55125" />
      <path
         id="path80"
         style="fill:#d1d3d4;fill-opacity:1;fill-rule:nonzero;stroke:none"
         d="m 303.93127,625.96519 c -2.95,-0.24 -5.26375,-1.3225 -5.175,-2.42 0.0888,-1.09375 2.54875,-1.79125 5.49875,-1.55125 2.94375,0.2375 5.26125,1.32 5.1725,2.41875 -0.0888,1.095 -2.54875,1.79 -5.49625,1.5525" />
      <path
         id="path82"
         style="fill:#d1d3d4;fill-opacity:1;fill-rule:nonzero;stroke:none"
         d="m 295.47252,629.07019 c -2.945,-0.24125 -5.26125,-1.3225 -5.1725,-2.4175 0.0875,-1.095 2.54875,-1.79125 5.4975,-1.55375 2.9475,0.2375 5.26625,1.32375 5.17375,2.42 -0.0888,1.09375 -2.55,1.79125 -5.49875,1.55125" />
      <path
         id="path84"
         style="fill:#d1d3d4;fill-opacity:1;fill-rule:nonzero;stroke:none"
         d="m 287.41002,632.07144 c -2.94625,-0.24 -5.26625,-1.31875 -5.175,-2.4175 0.0888,-1.0975 2.5475,-1.7925 5.49625,-1.5525 2.94625,0.24 5.26625,1.32125 5.1775,2.4175 -0.0925,1.09625 -2.55,1.7925 -5.49875,1.5525" />
      <path
         id="path86"
         style="fill:#730115;fill-opacity:1;fill-rule:nonzero;stroke:none"
         d="m 287.98502,671.17519 27.9225,-14.57625 0,-32.835 -27.9225,12.735 0,34.67625" />
      <path
         id="path88"
         style="fill:#939598;fill-opacity:1;fill-rule:nonzero;stroke:none"
         d="m 306.36627,634.78144 c -1.1425,2.69625 -0.80375,5.41875 0.7575,6.08125 1.56125,0.66 3.75375,-0.9925 4.895,-3.6875 1.14125,-2.69625 0.8025,-5.4175 -0.7625,-6.0775 -1.5575,-0.66125 -3.74875,0.985 -4.89,3.68375" />
      <path
         id="path90"
         style="fill:#939598;fill-opacity:1;fill-rule:nonzero;stroke:none"
         d="m 292.65502,641.69519 c -1.14,2.69875 -0.79625,5.42 0.76375,6.0825 1.55875,0.6575 3.75375,-0.99125 4.8925,-3.68625 1.14125,-2.695 0.80125,-5.41625 -0.75625,-6.07875 -1.565,-0.66125 -3.7575,0.98875 -4.9,3.6825" />
      <path
         id="path92"
         style="fill:#939598;fill-opacity:1;fill-rule:nonzero;stroke:none"
         d="m 306.36627,650.75394 c -1.1425,2.6975 -0.80375,5.42125 0.7575,6.0825 1.56125,0.6625 3.75375,-0.99 4.895,-3.68625 1.14125,-2.695 0.8025,-5.4175 -0.7625,-6.08 -1.5575,-0.66 -3.74875,0.99 -4.89,3.68375" />
      <path
         id="path94"
         style="fill:#939598;fill-opacity:1;fill-rule:nonzero;stroke:none"
         d="m 292.26752,657.67394 c -1.14125,2.69375 -0.8025,5.41625 0.75875,6.07875 1.56,0.65875 3.7525,-0.99 4.895,-3.68625 1.14,-2.69625 0.8025,-5.4175 -0.7575,-6.07875 -1.56625,-0.6625 -3.755,0.98625 -4.89625,3.68625" />
      <path
         id="path96"
         style="fill:#939598;fill-opacity:1;fill-rule:nonzero;stroke:none"
         d="m 299.66252,646.27269 c -1.1425,2.6975 -0.8025,5.41875 0.75625,6.0775 1.5625,0.66375 3.755,-0.98625 4.8975,-3.68375 1.1425,-2.69625 0.80375,-5.41875 -0.7575,-6.08 -1.56125,-0.65875 -3.75375,0.98875 -4.89625,3.68625" />
    </g>
  </g>
</svg>
