<?xml version="1.0" encoding="UTF-8" standalone="no"?>
<!-- Created with Inkscape (http://www.inkscape.org/) -->

<svg
   xmlns:dc="http://purl.org/dc/elements/1.1/"
   xmlns:cc="http://creativecommons.org/ns#"
   xmlns:rdf="http://www.w3.org/1999/02/22-rdf-syntax-ns#"
   xmlns:svg="http://www.w3.org/2000/svg"
   xmlns="http://www.w3.org/2000/svg"
   xmlns:sodipodi="http://sodipodi.sourceforge.net/DTD/sodipodi-0.dtd"
   xmlns:inkscape="http://www.inkscape.org/namespaces/inkscape"
   width="120.39212mm"
   height="42.397732mm"
   viewBox="0 0 426.58625 150.22818"
   id="svg60775"
   version="1.1"
   inkscape:version="0.91 r13725"
   sodipodi:docname="capcoop_large_logo.svg"
   inkscape:export-filename="E:\Website2\graphic_assets\casinoanalytics\fcapcoop_large_logo.png"
   inkscape:export-xdpi="600"
   inkscape:export-ydpi="600">
  <defs
     id="defs60777" />
  <sodipodi:namedview
     id="base"
     pagecolor="#ffffff"
     bordercolor="#666666"
     borderopacity="1.0"
     inkscape:pageopacity="0.0"
     inkscape:pageshadow="2"
     inkscape:zoom="2"
     inkscape:cx="305.65945"
     inkscape:cy="42.42451"
     inkscape:document-units="px"
     inkscape:current-layer="layer1"
     showgrid="false"
     inkscape:window-width="1920"
     inkscape:window-height="1028"
     inkscape:window-x="-8"
     inkscape:window-y="-8"
     inkscape:window-maximized="1"
     fit-margin-top="0"
     fit-margin-left="0"
     fit-margin-right="0"
     fit-margin-bottom="0"
     showborder="false" />
  <metadata
     id="metadata60780">
    <rdf:RDF>
      <cc:Work
         rdf:about="">
        <dc:format>image/svg+xml</dc:format>
        <dc:type
           rdf:resource="http://purl.org/dc/dcmitype/StillImage" />
        <dc:title></dc:title>
      </cc:Work>
    </rdf:RDF>
  </metadata>
  <g
     inkscape:label="Layer 1"
     inkscape:groupmode="layer"
     id="layer1"
     transform="translate(-58.135455,-144.55853)"
     style="display:inline">
    <g
       id="g60840"
       inkscape:export-xdpi="600"
       inkscape:export-ydpi="600">
      <path
         d="m 109.41546,204.84224 q -0.16,1.44 -0.24,4.24 -0.08,2.72 -0.08,4.08 0,1.84 0,2.72 l 0.32,3.92 -5.28,0.08 q -1.44,0 -2.08,-0.08 -0.56,-0.16 -0.88,-1.2 l -0.32,-1.2 q -0.72,-2.96 -2.960005,-4.64 -2.24,-1.68 -5.84,-1.68 -1.44,0 -3.44,0.4 -5.44,1.12 -9.12,6.48 -3.92,5.76 -3.92,13.92 0,4.24 1.2,9.12 1.2,4.8 4.4,8.08 2,2.16 4.72,3.36 2.72,1.12 5.36,1.12 2.8,0 5.28,-1.2 2.48,-1.2 3.840005,-3.36 l 1.04,-1.76 q 0.64,-1.76 0.88,-2.88 l 8,0 -0.16,3.52 q 0,2.64 0,5.28 0,2.56 0.08,5.2 -3.28,1.44 -6.8,2.32 -3.520005,0.8 -8.640005,1.28 -2.32,0.24 -4.56,0.24 -14.4,0 -23.28,-8 -8.8,-8.08 -8.8,-20.4 0,-4.24 1.2,-8.8 2.8,-10.24 11.52,-16.24 9.04,-6.24 22.32,-6.24 2.48,0 5.12,0.24 2.640005,0.24 5.680005,0.8 l 2.56,0.48 1.36,0.4 1.52,0.4 z"
         style="font-style:normal;font-variant:normal;font-weight:100;font-stretch:normal;font-size:medium;line-height:125%;font-family:Detente;-inkscape-font-specification:'Detente Thin';letter-spacing:0px;word-spacing:0px;fill:#aa4400;fill-opacity:1;stroke:none;stroke-width:1px;stroke-linecap:butt;stroke-linejoin:miter;stroke-opacity:1"
         id="path60816"
         inkscape:connector-curvature="0" />
      <path
         d="m 123.45546,260.44224 q -2.48,0 -6.56,0.32 -1.36,0.08 -3.68,0.32 l 0,-8.08 q 3.2,0 5.68,-4.32 l 0.64,-1.2 2,-4.72 2.64,-6.8 q 3.92,-10.32 6.4,-17.68 2.24,-6.64 4.56,-14.72 1.6,0.32 3.68,0.56 2.16,0.24 3.92,0.24 2.4,0 4.48,-0.16 2.16,-0.16 4.16,-0.64 l 2.4,7.92 q 3.44,11.36 5.52,17.52 2.56,7.68 5.92,15.92 l 1.04,2.56 0.64,1.2 q 2.48,4.32 6.08,4.32 l 0,8.08 q -3.28,-0.4 -7.12,-0.64 -3.84,-0.24 -7.52,-0.24 -7.92,0 -14.64,0.88 l 0,-8.08 0.56,0 q 4,0 4,-4.24 0,-0.8 -0.08,-1.28 0,-2.08 -0.48,-2.56 -0.24,-0.32 -0.32,-0.48 -0.4,-0.48 -0.64,-0.48 l -13.76,0 q -0.64,0 -1.2,0.16 -0.16,0 -0.48,0.24 l -1.2,3.12 -0.24,1.2 q 0,4 3.68,4.32 l 0.48,0 0,8.08 q -2.4,-0.24 -3.76,-0.32 -4.24,-0.32 -6.8,-0.32 z m 11.04,-26.64 q -0.4,1.52 2.56,1.52 l 4.88,0 q 2.4,0 2,-1.68 l -4.32,-15.12 -5.12,15.28 z"
         style="font-style:normal;font-variant:normal;font-weight:100;font-stretch:normal;font-size:medium;line-height:125%;font-family:Detente;-inkscape-font-specification:'Detente Thin';letter-spacing:0px;word-spacing:0px;fill:#aa4400;fill-opacity:1;stroke:none;stroke-width:1px;stroke-linecap:butt;stroke-linejoin:miter;stroke-opacity:1"
         id="path60818"
         inkscape:connector-curvature="0" />
      <path
         d="m 175.46046,211.56224 0,-8 6.64,0.4 12,0 0.48,0 3.36,-0.24 2.56,-0.16 q 10.88,0 17.12,4.64 6.32,4.64 6.32,12.16 0,1.36 -0.08,2.16 -0.08,0.8 -0.4,2.08 -0.24,1.2 -0.64,2.24 -0.4,1.04 -0.96,2.08 -2.4,4.32 -7.04,6.8 -4.64,2.48 -11.12,2.48 l -1.84,0 -0.64,0 q -2.16,0 -2.96,0.56 -0.72,0.48 -0.72,2.16 l 0,4 q 0,8 4.72,8 l 1.12,0.08 0,8.08 q -6.4,-0.8 -13.6,-0.8 -7.52,0 -14.24,0.8 l 0,-8.08 0.64,0 q 4,-0.32 4.96,-4.32 l 0.24,-1.2 q 0.08,-7.2 0.08,-13.52 0.08,-6.4 0.16,-15.04 0,-1.2 0,-1.92 0,-0.72 -0.08,-1.12 -1.04,-4.24 -5.44,-4.24 l -0.64,-0.08 z m 25.2,18.08 q 1.28,0 2.32,-0.32 1.04,-0.4 2.08,-1.28 1.04,-0.88 1.68,-2.32 0.64,-1.44 0.96,-3.92 0.08,-0.56 0.08,-1.68 0,-1.12 -0.16,-1.68 -0.72,-4.8 -3.76,-6.08 -1.36,-0.48 -2.4,-0.48 -2,0 -2.96,1.12 -0.88,1.04 -0.88,3.04 l 0,9.76 q 0,3.84 3.04,3.84 z"
         style="font-style:normal;font-variant:normal;font-weight:100;font-stretch:normal;font-size:medium;line-height:125%;font-family:Detente;-inkscape-font-specification:'Detente Thin';letter-spacing:0px;word-spacing:0px;fill:#aa4400;fill-opacity:1;stroke:none;stroke-width:1px;stroke-linecap:butt;stroke-linejoin:miter;stroke-opacity:1"
         id="path60820"
         inkscape:connector-curvature="0" />
      <path
         d="m 224.08233,246.36224 0.08,-6.16 0,-2.96 -0.08,-2.88 q 2.4,0 7.36,0.32 4.96,0.32 7.44,0.32 3.28,0 7.12,-0.24 3.92,-0.24 7.52,-0.64 0,0.96 -0.08,3.04 -0.08,2.08 -0.08,3.12 l 0.24,6.08 q -7.84,-0.64 -14.72,-0.64 -6.88,0 -14.8,0.64 z"
         style="font-style:normal;font-variant:normal;font-weight:100;font-stretch:normal;font-size:medium;line-height:125%;font-family:Detente;-inkscape-font-specification:'Detente Thin';letter-spacing:0px;word-spacing:0px;fill:#aa4400;fill-opacity:1;stroke:none;stroke-width:1px;stroke-linecap:butt;stroke-linejoin:miter;stroke-opacity:1"
         id="path60822"
         inkscape:connector-curvature="0" />
      <path
         d="m 308.00921,204.84224 q -0.16,1.44 -0.24,4.24 -0.08,2.72 -0.08,4.08 0,1.84 0,2.72 l 0.32,3.92 -5.28,0.08 q -1.44,0 -2.08,-0.08 -0.56,-0.16 -0.88,-1.2 l -0.32,-1.2 q -0.72,-2.96 -2.96,-4.64 -2.24,-1.68 -5.84,-1.68 -1.44,0 -3.44,0.4 -5.44,1.12 -9.12,6.48 -3.92,5.76 -3.92,13.92 0,4.24 1.2,9.12 1.2,4.8 4.4,8.08 2,2.16 4.72,3.36 2.72,1.12 5.36,1.12 2.8,0 5.28,-1.2 2.48,-1.2 3.84,-3.36 l 1.04,-1.76 q 0.64,-1.76 0.88,-2.88 l 8,0 -0.16,3.52 q 0,2.64 0,5.28 0,2.56 0.08,5.2 -3.28,1.44 -6.8,2.32 -3.52,0.8 -8.64,1.28 -2.32,0.24 -4.56,0.24 -14.4,0 -23.28,-8 -8.8,-8.08 -8.8,-20.4 0,-4.24 1.2,-8.8 2.8,-10.24 11.52,-16.24 9.04,-6.24 22.32,-6.24 2.48,0 5.12,0.24 2.64,0.24 5.68,0.8 l 2.56,0.48 1.36,0.4 1.52,0.4 z"
         style="font-style:normal;font-variant:normal;font-weight:100;font-stretch:normal;font-size:medium;line-height:125%;font-family:Detente;-inkscape-font-specification:'Detente Thin';letter-spacing:0px;word-spacing:0px;fill:#aa4400;fill-opacity:1;stroke:none;stroke-width:1px;stroke-linecap:butt;stroke-linejoin:miter;stroke-opacity:1"
         id="path60824"
         inkscape:connector-curvature="0" />
      <path
         d="m 311.80921,232.28224 q 0,-12.32 8.72,-20.96 8.8,-8.72 21.2,-8.72 12.4,0 21.12,8.72 4.24,4.24 6.48,9.76 2.32,5.52 2.32,11.36 0,5.84 -2.24,11.28 -2.16,5.36 -6.48,9.68 -4.24,4.32 -9.68,6.56 -5.44,2.24 -11.52,2.24 -12.16,0 -21.04,-8.8 -8.88,-8.8 -8.88,-21.12 z m 20.08,9.36 q 2.32,3.84 4.8,6.32 2.56,2.48 5.04,3.6 2.56,1.12 4.96,1.12 4.32,0 7.44,-2.88 3.2,-2.96 3.2,-7.44 0,-2.72 -0.48,-5.04 -0.48,-2.4 -1.84,-6.96 -1.6,-5.52 -5.28,-10.16 -2.72,-3.44 -5.68,-5.52 -1.44,-1.04 -3.2,-1.6 -1.68,-0.56 -3.04,-0.56 -2.8,0 -5.44,1.68 -2.56,1.68 -4.88,4.56 -0.64,0.8 -0.96,2.08 -0.32,1.28 -0.32,2.72 0,4.4 2.4,10.88 1.76,4.72 3.28,7.2 z"
         style="font-style:normal;font-variant:normal;font-weight:100;font-stretch:normal;font-size:medium;line-height:125%;font-family:Detente;-inkscape-font-specification:'Detente Thin';letter-spacing:0px;word-spacing:0px;fill:#aa4400;fill-opacity:1;stroke:none;stroke-width:1px;stroke-linecap:butt;stroke-linejoin:miter;stroke-opacity:1"
         id="path60826"
         inkscape:connector-curvature="0" />
      <path
         d="m 374.46546,232.28224 q 0,-12.32 8.72,-20.96 8.8,-8.72 21.2,-8.72 12.4,0 21.12,8.72 4.24,4.24 6.48,9.76 2.32,5.52 2.32,11.36 0,5.84 -2.24,11.28 -2.16,5.36 -6.48,9.68 -4.24,4.32 -9.68,6.56 -5.44,2.24 -11.52,2.24 -12.16,0 -21.04,-8.8 -8.88,-8.8 -8.88,-21.12 z m 20.08,9.36 q 2.32,3.84 4.8,6.32 2.56,2.48 5.04,3.6 2.56,1.12 4.96,1.12 4.32,0 7.44,-2.88 3.2,-2.96 3.2,-7.44 0,-2.72 -0.48,-5.04 -0.48,-2.4 -1.84,-6.96 -1.6,-5.52 -5.28,-10.16 -2.72,-3.44 -5.68,-5.52 -1.44,-1.04 -3.2,-1.6 -1.68,-0.56 -3.04,-0.56 -2.8,0 -5.44,1.68 -2.56,1.68 -4.88,4.56 -0.64,0.8 -0.96,2.08 -0.32,1.28 -0.32,2.72 0,4.4 2.4,10.88 1.76,4.72 3.28,7.2 z"
         style="font-style:normal;font-variant:normal;font-weight:100;font-stretch:normal;font-size:medium;line-height:125%;font-family:Detente;-inkscape-font-specification:'Detente Thin';letter-spacing:0px;word-spacing:0px;fill:#aa4400;fill-opacity:1;stroke:none;stroke-width:1px;stroke-linecap:butt;stroke-linejoin:miter;stroke-opacity:1"
         id="path60828"
         inkscape:connector-curvature="0" />
      <path
         d="m 436.24171,211.56224 0,-8 6.64,0.4 12,0 0.48,0 3.36,-0.24 2.56,-0.16 q 10.88,0 17.12,4.64 6.32,4.64 6.32,12.16 0,1.36 -0.08,2.16 -0.08,0.8 -0.4,2.08 -0.24,1.2 -0.64,2.24 -0.4,1.04 -0.96,2.08 -2.4,4.32 -7.04,6.8 -4.64,2.48 -11.12,2.48 l -1.84,0 -0.64,0 q -2.16,0 -2.96,0.56 -0.72,0.48 -0.72,2.16 l 0,4 q 0,8 4.72,8 l 1.12,0.08 0,8.08 q -6.4,-0.8 -13.6,-0.8 -7.52,0 -14.24,0.8 l 0,-8.08 0.64,0 q 4,-0.32 4.96,-4.32 l 0.24,-1.2 q 0.08,-7.2 0.08,-13.52 0.08,-6.4 0.16,-15.04 0,-1.2 0,-1.92 0,-0.72 -0.08,-1.12 -1.04,-4.24 -5.44,-4.24 l -0.64,-0.08 z m 25.2,18.08 q 1.28,0 2.32,-0.32 1.04,-0.4 2.08,-1.28 1.04,-0.88 1.68,-2.32 0.64,-1.44 0.96,-3.92 0.08,-0.56 0.08,-1.68 0,-1.12 -0.16,-1.68 -0.72,-4.8 -3.76,-6.08 -1.36,-0.48 -2.4,-0.48 -2,0 -2.96,1.12 -0.88,1.04 -0.88,3.04 l 0,9.76 q 0,3.84 3.04,3.84 z"
         style="font-style:normal;font-variant:normal;font-weight:100;font-stretch:normal;font-size:medium;line-height:125%;font-family:Detente;-inkscape-font-specification:'Detente Thin';letter-spacing:0px;word-spacing:0px;fill:#aa4400;fill-opacity:1;stroke:none;stroke-width:1px;stroke-linecap:butt;stroke-linejoin:miter;stroke-opacity:1"
         id="path60830"
         inkscape:connector-curvature="0" />
    </g>
    <text
       xml:space="preserve"
       style="font-style:normal;font-variant:normal;font-weight:normal;font-stretch:normal;font-size:30px;line-height:89.99999762%;font-family:'Century Schoolbook';-inkscape-font-specification:'Century Schoolbook, Normal';text-align:start;letter-spacing:0px;word-spacing:0px;writing-mode:lr-tb;text-anchor:start;fill:#aa4400;fill-opacity:1;stroke:none;stroke-width:1px;stroke-linecap:butt;stroke-linejoin:miter;stroke-opacity:1"
       x="58.463581"
       y="166.67767"
       id="text4203"
       sodipodi:linespacing="89.999998%"><tspan
         sodipodi:role="line"
         x="58.463581"
         y="166.67767"
         id="tspan4205"><tspan
           x="58.463581"
           y="166.67767"
           id="tspan4207">Casino Analytics</tspan><tspan
           dx="0"
           x="292.36984"
           y="166.67767"
           id="tspan4209" /></tspan><tspan
         sodipodi:role="line"
         x="58.463581"
         y="193.67767"
         id="tspan4211"><tspan
           x="58.463581"
           y="193.67767"
           id="tspan4213">Professional Cooperative</tspan></tspan></text>
    <text
       xml:space="preserve"
       style="font-style:normal;font-variant:normal;font-weight:normal;font-stretch:normal;font-size:30px;line-height:89.99999762%;font-family:'Century Schoolbook';-inkscape-font-specification:'Century Schoolbook, Normal';text-align:start;letter-spacing:0px;word-spacing:0px;writing-mode:lr-tb;text-anchor:start;fill:#aa4400;fill-opacity:1;stroke:none;stroke-width:1px;stroke-linecap:butt;stroke-linejoin:miter;stroke-opacity:1"
       x="218.4805"
       y="288.94199"
       id="text4215"
       sodipodi:linespacing="89.999998%"><tspan
         sodipodi:role="line"
         x="218.4805"
         y="288.94199"
         id="tspan4217"><tspan
           x="218.4805"
           y="288.94199"
           id="tspan4219">casinoanalytics.org</tspan></tspan></text>
  </g>
</svg>
