<?xml version="1.0" encoding="UTF-8" standalone="no"?>
<!-- Created with Inkscape (http://www.inkscape.org/) -->

<svg
   xmlns:dc="http://purl.org/dc/elements/1.1/"
   xmlns:cc="http://creativecommons.org/ns#"
   xmlns:rdf="http://www.w3.org/1999/02/22-rdf-syntax-ns#"
   xmlns:svg="http://www.w3.org/2000/svg"
   xmlns="http://www.w3.org/2000/svg"
   xmlns:sodipodi="http://sodipodi.sourceforge.net/DTD/sodipodi-0.dtd"
   xmlns:inkscape="http://www.inkscape.org/namespaces/inkscape"
   width="35.372566mm"
   height="35.370205mm"
   viewBox="0 0 125.33586 125.3275"
   id="svg4740"
   version="1.1"
   inkscape:version="0.91 r13725">
  <defs
     id="defs4742" />
  <sodipodi:namedview
     id="base"
     pagecolor="#ffffff"
     bordercolor="#666666"
     borderopacity="1.0"
     inkscape:pageopacity="0.0"
     inkscape:pageshadow="2"
     inkscape:zoom="0.35"
     inkscape:cx="-204.93272"
     inkscape:cy="-67.269332"
     inkscape:document-units="px"
     inkscape:current-layer="layer1"
     showgrid="false"
     fit-margin-top="0"
     fit-margin-left="0"
     fit-margin-right="0"
     fit-margin-bottom="0"
     inkscape:window-width="1920"
     inkscape:window-height="1028"
     inkscape:window-x="-8"
     inkscape:window-y="-8"
     inkscape:window-maximized="1" />
  <metadata
     id="metadata4745">
    <rdf:RDF>
      <cc:Work
         rdf:about="">
        <dc:format>image/svg+xml</dc:format>
        <dc:type
           rdf:resource="http://purl.org/dc/dcmitype/StillImage" />
        <dc:title></dc:title>
      </cc:Work>
    </rdf:RDF>
  </metadata>
  <g
     inkscape:label="Layer 1"
     inkscape:groupmode="layer"
     id="layer1"
     transform="translate(-152.78986,-339.76537)">
    <g
       transform="translate(594.28571,-51.428567)"
       id="g4673">
      <path
         inkscape:connector-curvature="0"
         d="m -346.73023,423.93019 30.5415,28.75625 c -0.62875,-34.065 -28.42275,-61.4925 -62.63862,-61.4925 -34.61038,0 -62.6685,28.05625 -62.6685,62.6675 0,33.75375 26.70462,61.2675 60.13962,62.5975 l -32.19425,-35.76125 66.82025,-56.7675"
         style="fill:#48bbb8;fill-opacity:1;fill-rule:nonzero;stroke:none"
         id="path156" />
      <path
         inkscape:connector-curvature="0"
         d="m -316.15998,453.86144 c 0,-0.395 -0.0212,-0.7825 -0.0288,-1.175 l -30.54145,-28.75625 -66.82025,56.7675 32.19425,35.76125 c 0.84088,0.0312 1.68125,0.0625 2.52888,0.0625 34.60987,0 62.66737,-28.0575 62.66737,-62.66"
         style="fill:#36a4a1;fill-opacity:1;fill-rule:nonzero;stroke:none"
         id="path158" />
      <path
         inkscape:connector-curvature="0"
         d="m -347.79173,484.88894 c -17.14012,17.13875 -44.93112,17.1375 -62.07025,0 -17.14112,-17.1375 -17.14012,-44.9225 -5e-4,-62.0625 17.14112,-17.14125 44.92962,-17.14125 62.07125,0 17.13875,17.14 17.14125,44.925 -5e-4,62.0625"
         style="fill:#e6e7e8;fill-opacity:1;fill-rule:nonzero;stroke:none"
         id="path160" />
      <path
         inkscape:connector-curvature="0"
         d="m -350.61736,482.06019 c -15.58012,15.5825 -40.84037,15.58 -56.41799,0.001 -15.57963,-15.5735 -15.58013,-40.8285 -0.002,-56.411 15.57912,-15.5775 40.84037,-15.5775 56.42037,0.002 15.57863,15.57875 15.57863,40.835 -8.7e-4,56.4075"
         style="fill:#ab7536;fill-opacity:1;fill-rule:nonzero;stroke:none"
         id="path162" />
      <path
         inkscape:connector-curvature="0"
         d="m -355.6946,476.98394 c -12.77538,12.77375 -33.48826,12.77625 -46.26413,10e-4 -12.77587,-12.77 -12.77587,-33.4825 -5e-4,-46.25625 12.77588,-12.775 33.48925,-12.775 46.26513,0.001 12.77537,12.775 12.7745,33.485 -5e-4,46.25375"
         style="fill:#ffca08;fill-opacity:1;fill-rule:nonzero;stroke:none"
         id="path164" />
      <path
         inkscape:connector-curvature="0"
         d="m -377.84298,450.41394 9.60988,-22.525 c -3.07913,-1.25375 -6.33688,-1.93625 -9.61038,-2.0475 l 5e-4,24.5725"
         style="fill:#655243;fill-opacity:1;fill-rule:nonzero;stroke:none"
         id="path166" />
      <path
         inkscape:connector-curvature="0"
         d="m -380.1916,452.86769 -18.6465,-18.645 c -2.43013,2.4725 -4.30563,5.28625 -5.63238,8.28375 l 24.27888,10.36125"
         style="fill:#c3171e;fill-opacity:1;fill-rule:nonzero;stroke:none"
         id="path168" />
      <path
         inkscape:connector-curvature="0"
         d="m -375.92398,450.20144 16.538,-16.53875 c -2.2095,-2.12875 -4.68012,-3.825 -7.3095,-5.08625 l -9.2285,21.625"
         style="fill:#c3171e;fill-opacity:1;fill-rule:nonzero;stroke:none"
         id="path170" />
      <path
         inkscape:connector-curvature="0"
         d="m -380.61148,450.07019 -8.8985,-22.14375 c -2.91212,1.19625 -5.66362,2.9075 -8.11812,5.12625 l 17.01662,17.0175"
         style="fill:#655243;fill-opacity:1;fill-rule:nonzero;stroke:none"
         id="path172" />
      <path
         inkscape:connector-curvature="0"
         d="m -379.5271,448.25519 0,-22.42125 c -2.84563,0.07 -5.6845,0.56625 -8.40625,1.5 l 8.40625,20.92125"
         style="fill:#c3171e;fill-opacity:1;fill-rule:nonzero;stroke:none"
         id="path174" />
      <path
         inkscape:connector-curvature="0"
         d="m -352.8816,464.52019 c 1.26662,-3.095 1.958,-6.36375 2.07475,-9.65375 l -24.70213,10e-4 22.62738,9.6525"
         style="fill:#047266;fill-opacity:1;fill-rule:nonzero;stroke:none"
         id="path176" />
      <path
         inkscape:connector-curvature="0"
         d="m -374.74873,453.18394 23.95013,0 c -0.0741,-3.03625 -0.63325,-6.05875 -1.6875,-8.94625 l -22.26263,8.94625"
         style="fill:#c3171e;fill-opacity:1;fill-rule:nonzero;stroke:none"
         id="path178" />
      <path
         inkscape:connector-curvature="0"
         d="m -374.6906,451.34394 21.57949,-8.66625 c -1.21962,-2.80625 -2.915,-5.4525 -5.09612,-7.81625 l -16.48337,16.4825"
         style="fill:#655243;fill-opacity:1;fill-rule:nonzero;stroke:none"
         id="path180" />
      <path
         inkscape:connector-curvature="0"
         d="m -375.98123,457.08019 8.93663,22.22875 c 2.83887,-1.3125 5.5,-3.13 7.85837,-5.44125 l -16.795,-16.7875"
         style="fill:#655243;fill-opacity:1;fill-rule:nonzero;stroke:none"
         id="path182" />
      <path
         inkscape:connector-curvature="0"
         d="m -377.84348,456.95769 -0.002,24.91625 c 3.1475,-0.11125 6.27688,-0.74625 9.24863,-1.90875 l -9.24713,-23.0075"
         style="fill:#c3171e;fill-opacity:1;fill-rule:nonzero;stroke:none"
         id="path184" />
      <path
         inkscape:connector-curvature="0"
         d="m -372.85035,457.82894 14.83112,14.82625 c 1.832,-2.0225 3.311,-4.2525 4.44625,-6.60375 l -19.27737,-8.2225"
         style="fill:#c3171e;fill-opacity:1;fill-rule:nonzero;stroke:none"
         id="path186" />
      <path
         inkscape:connector-curvature="0"
         d="m -379.5271,458.64394 -9.16063,21.46125 c 2.95075,1.1075 6.04988,1.69625 9.16063,1.775 l 0,-23.23625"
         style="fill:#655243;fill-opacity:1;fill-rule:nonzero;stroke:none"
         id="path188" />
      <path
         inkscape:connector-curvature="0"
         d="m -381.70035,455.97644 -22.80226,9.16 c 1.29388,2.945 3.11963,5.71375 5.47551,8.15875 l 17.32675,-17.31875"
         style="fill:#655243;fill-opacity:1;fill-rule:nonzero;stroke:none"
         id="path190" />
      <path
         inkscape:connector-curvature="0"
         d="m -383.45085,454.86769 -23.3975,0 c 0.105,2.955 0.67775,5.8975 1.71587,8.71 l 21.68163,-8.71"
         style="fill:#c3171e;fill-opacity:1;fill-rule:nonzero;stroke:none"
         id="path192" />
      <path
         inkscape:connector-curvature="0"
         d="m -380.88698,457.54269 -16.94037,16.93 c 2.29975,2.12125 4.86324,3.785 7.5815,4.99375 l 9.35887,-21.92375"
         style="fill:#c3171e;fill-opacity:1;fill-rule:nonzero;stroke:none"
         id="path194" />
      <path
         inkscape:connector-curvature="0"
         d="m -383.73898,453.18394 -21.36475,-9.11625 c -1.09375,2.93625 -1.67875,6.02 -1.751,9.115 l 23.11575,0.001"
         style="fill:#655243;fill-opacity:1;fill-rule:nonzero;stroke:none"
         id="path196" />
      <path
         inkscape:connector-curvature="0"
         d="m -365.4411,467.24269 c -7.39363,7.3875 -19.37888,7.39 -26.771,0.001 -7.39363,-7.38875 -7.39363,-19.375 -10e-4,-26.76875 7.39312,-7.3925 19.37887,-7.3925 26.7725,0 7.39212,7.39375 7.39212,19.37875 0,26.7675"
         style="fill:#ffca08;fill-opacity:1;fill-rule:nonzero;stroke:none"
         id="path198" />
      <path
         inkscape:connector-curvature="0"
         d="m -370.44798,462.24019 c -4.62737,4.62375 -12.13137,4.62 -16.75587,-10e-4 -4.62688,-4.625 -4.62988,-12.12875 -0.002,-16.75625 4.62687,-4.62625 12.13175,-4.62625 16.75925,0 4.625,4.62625 4.627,12.13125 -0.001,16.7575"
         style="fill:#ab7536;fill-opacity:1;fill-rule:nonzero;stroke:none"
         id="path200" />
      <path
         inkscape:connector-curvature="0"
         d="m -372.76735,449.40894 c -1.72363,1.72375 -3.48188,2.76125 -3.92475,2.32 -0.44338,-0.44625 0.59574,-2.2025 2.31987,-3.9275 1.72363,-1.7225 3.48038,-2.76125 3.92525,-2.31875 0.44288,0.445 -0.59675,2.2025 -2.32037,3.92625"
         style="fill:#e6e7e8;fill-opacity:1;fill-rule:nonzero;stroke:none"
         id="path202" />
      <path
         inkscape:connector-curvature="0"
         d="m -383.28048,459.92019 c -1.72462,1.72375 -3.481,2.76125 -3.92337,2.31875 -0.44475,-0.44375 0.59375,-2.2 2.31737,-3.9225 1.72463,-1.72625 3.481,-2.76375 3.92538,-2.32 0.44287,0.44375 -0.59525,2.20125 -2.31938,3.92375"
         style="fill:#e6e7e8;fill-opacity:1;fill-rule:nonzero;stroke:none"
         id="path204" />
      <path
         inkscape:connector-curvature="0"
         d="m -374.37323,459.92019 c -1.72312,-1.7225 -2.76225,-3.47875 -2.31937,-3.92375 0.44437,-0.44375 2.20212,0.59375 3.92525,2.31875 1.72612,1.72375 2.76375,3.48 2.31937,3.925 -0.44387,0.44125 -2.19975,-0.59625 -3.92525,-2.32"
         style="fill:#e6e7e8;fill-opacity:1;fill-rule:nonzero;stroke:none"
         id="path206" />
      <path
         inkscape:connector-curvature="0"
         d="m -384.88748,449.40769 c -1.72262,-1.7225 -2.76112,-3.48 -2.31737,-3.925 0.44337,-0.4425 2.20075,0.59375 3.92437,2.31875 1.72363,1.72375 2.76175,3.48125 2.31688,3.925 -0.44338,0.44375 -2.20013,-0.595 -3.92388,-2.31875"
         style="fill:#e6e7e8;fill-opacity:1;fill-rule:nonzero;stroke:none"
         id="path208" />
      <path
         inkscape:connector-curvature="0"
         d="m -375.90161,456.78769 c -1.61574,1.615 -4.23437,1.615 -5.85012,0 -1.61512,-1.615 -1.61562,-4.23375 0,-5.85125 1.61575,-1.615 4.23588,-1.61375 5.85012,0 1.61526,1.61625 1.61576,4.23625 0,5.85125"
         style="fill:#e6e7e8;fill-opacity:1;fill-rule:nonzero;stroke:none"
         id="path210" />
    </g>
  </g>
</svg>
